<?xml version="1.0" encoding="UTF-8"?>
<svg id="Layer_2" data-name="Layer 2" xmlns="http://www.w3.org/2000/svg" viewBox="0 0 851.89 595.16">
  <defs>
    <style>
      .cls-1 {
        fill: #fff;
      }

      .cls-2 {
        fill: #ffc627;
      }
    </style>
  </defs>
  <g id="Layer_2-2" data-name="Layer 2">
    <g id="uuid-73352c95-7d76-4321-8a4a-34472b16c5f6" data-name="Layer 2-2">
      <g id="Layer_1-2" data-name="Layer 1-2">
        <g>
          <path class="cls-1" d="M97.99,0l282.96,245.97c-9.5.77-19.37,2.04-29,0L0,65.99V0h97.99Z"/>
          <path class="cls-1" d="M842.89,0l-.99,66.51-350.97,179.46c-9.55,2.17-19.55.76-29,0L744.91,0h97.99,0Z"/>
          <path class="cls-1" d="M275.97,245.97c-.61,2.3,1.03,3.36,2.45,4.57,11.88,10.16,28.51,21.03,41.55,30.42H0v-98.99l275.97,63.99h0Z"/>
          <path class="cls-1" d="M311.96,0l83.99,215.97c-2.32,6.86-3.75,14.16-6,21L217.97,0h93.99Z"/>
          <path class="cls-1" d="M624.92,0l-170.98,235.97c-1.9-6.33-4.82-13.53-7-20L530.93,0h93.99Z"/>
          <path class="cls-1" d="M460.94,0l-25,180.98c-4.3-13.37-9.59-26.5-13.5-40.01l-2.48.71c-.04,4.36-2.42,8.23-3.74,12.09-2.36,6.86-4.43,14.62-6.79,22.19-.53,1.69-1.31,3.68-2.48,5.03L381.95,0h78.99Z"/>
          <path class="cls-2" d="M406.95,180.98c1.16-1.35,1.95-3.34,2.48-5.03,2.36-7.57,4.43-15.32,6.79-22.19,1.33-3.85,3.7-7.72,3.74-12.09l2.48-.71c3.91,13.5,9.2,26.63,13.5,40.01,3.67,11.43,7.15,23.6,11,35,2.18,6.47,5.1,13.67,7,20,.85,2.85-.43,10.57,4.46,10.92,1.12.08,2.65-.99,3.54-.92,9.44.76,19.44,2.17,29,0l4.43,1.04c23.64-1.19,48.16,1.9,71.56-1.04.49,2.39-2.2,4.63-3.77,5.98-11.05,9.53-27.92,20.15-40.22,29.01-3.21,2.32-7.79,4.64-11.32,7.18-11.34,8.17-22.54,16.75-33.5,25.44l33.81,106.36-90.49-64.95-89.97,64.96,33.55-107.31c-12.81-8.82-25.1-18.43-37.75-27.49-2.28-1.64-5.57-2.93-7.31-4.18-13.04-9.39-29.67-20.26-41.55-30.42-1.42-1.21-3.05-2.27-2.45-4.57l71.56,1.04,4.43-1.04c9.63,2.04,19.5.77,29,0,1.45-.12,3.87,2.03,5.58.11,1.1-.94,2.74-7.07,3.42-9.11,2.25-6.84,3.68-14.14,6-21,3.8-11.21,10.27-23.14,11-35h0Z"/>
          <path class="cls-1" d="M566.93,245.97c1.31-.16,2.84.22,4.2-.25l271.77-63.74v98.99h-319.96c12.3-8.87,29.17-19.49,40.22-29.01,1.57-1.36,4.26-3.59,3.77-5.98h0Z"/>
          <path class="cls-1" d="M753.41,446.94c16.6,2.23,27.58,19.41,12.99,31.99l-13.49,5.99c19.02,1.41,19.24,16.7,21.13,31.87l8.8,1.19-.05,6.85c-9.04,2.39-26.14,4.79-32.13-4.17-6.85-10.25,2.39-33.82-16.77-31.73v28l8.95,1.05.05,6.95h-40.99l.05-6.95,8.94-1.06-.13-61.84-8.87-1.14v-7h51.52ZM733.91,481.94c22.9,2.67,22.89-30.66,0-28v28Z"/>
          <path class="cls-1" d="M53.49,446.94c15.79,2.12,25.33,18.43,11.99,29.99l-13.49,5.99c14.81,1.34,26.1,6.66,24.01,23.53-.95,7.69-9.32,13.66-16.22,15.77-1.99.61-10.83,2.7-12.3,2.7H2l.05-6.95,8.94-1.06-.13-61.84-8.87-1.14v-7h51.5ZM34,453.94v25.5c0,3.37,11.03.27,13.5-5.5,4.56-10.68-1.09-21.56-13.5-19.99h0ZM34,516.94c24.43,3.93,24.77-33.03,0-30v30Z"/>
          <path class="cls-1" d="M570.72,444.24c55.75-4.13,58.32,88.86-3.28,82.69-42.79-4.29-44.71-79.13,3.28-82.69ZM570.64,452.16c-11.25,2.58-11.34,32.47-10.75,41.32.57,8.62,2.75,27.02,14.52,26.53,14.61-.61,14.26-32.51,13.56-42.61-.7-10.09-3.06-28.51-17.33-25.24h0Z"/>
          <path class="cls-1" d="M439.94,489.94v-33.5l-1.66-1.34-13.34-1.16v-7h33l-.05,6.95-9.95,1.05v69.99l-13.48-1.02-38.51-52.98v44.49l1.65,1.35,12.29,1.2.05,6.95h-33l.11-6.89,9.9-1.1c-.97-18.14,1.27-37.54.04-55.54-.55-8.05-2.01-7.59-10.05-7.45v-7h30.5l32.5,42.99h0Z"/>
          <path class="cls-1" d="M367.95,446.94l1.01,20-10.87-.14-2.14-12.86h-17v27l10.07-.43,2.03-8.46,7.9-.1v25l-7.89-.11-1.1-8.89h-11v30h19l2.05-12.95,11.94-.05c.59,1.4-.99,2.99-.99,3.49v16.5h-64.99l.05-6.95,8.94-1.06-.13-61.84-8.87-1.14v-7h62,0Z"/>
          <path class="cls-1" d="M141.98,446.94l1.01,20-10.87-.14-2.14-12.86h-17v27l10.07-.43,2.03-8.46,7.9-.1v25l-7.89-.11-1.1-8.89h-11v30h19l2.05-12.95,11.94-.05c.59,1.4-.99,2.99-.99,3.49v16.5h-64.99l.05-6.95,8.94-1.06-.13-61.84-8.87-1.14v-7h62,0Z"/>
          <path class="cls-1" d="M656.92,446.94v7l-9.04,1.66c1.57,12.66-3.89,47.47,5.52,56.35,3.58,3.37,12.05,3.93,16.57,2.53,5.01-1.54,9.94-11.29,9.94-16.05v-44.49h-10v-7h28v7h-9v39.5c0,2.85-1.63,10.39-2.5,13.5-4.91,17.54-20.53,21.48-37.03,20.03-34.47-3.02-23.73-47.01-25.46-70.53l-1.64-2.36-6.37-.13v-7h41.01Z"/>
          <polygon class="cls-1" points="222.97 446.94 222.97 468.94 212.08 468.83 209.92 454 198.98 453.94 198.98 516.94 207.86 518.04 207.97 524.93 164.98 524.93 165.03 517.98 174.98 516.94 174.98 453.94 163.41 454.88 161.98 468.95 149.98 468.95 150.98 446.94 222.97 446.94"/>
          <polygon class="cls-1" points="299.96 446.94 299.96 468.94 289.07 468.83 286.91 454 275.97 453.94 275.97 516.94 284.85 518.04 284.96 524.93 241.97 524.93 242.02 517.98 251.97 516.94 251.97 453.94 240.4 454.88 238.97 468.95 226.97 468.95 227.97 446.94 299.96 446.94"/>
          <polygon class="cls-1" points="851.89 446.94 851.89 468.94 841 468.83 838.85 454 827.9 453.94 827.9 516.94 836.79 518.04 836.9 524.93 793.9 524.93 793.95 517.98 803.9 516.94 803.9 453.94 792.33 454.88 790.9 468.95 778.9 468.95 779.9 446.94 851.89 446.94"/>
          <path class="cls-1" d="M529.93,468.94l-9.87-.13c-3.35-7.46-.54-18.13-11.54-17.78-23.69.76-24.84,39.72-18.08,55.89,3.79,9.06,14.08,16.43,24.08,12.11,5.51-2.38,3.76-14.85,6.35-16.65,1.47-1.03,9.34-1.07,9.98,1.18l-1.06,18.24c-25.1,11.16-60.21,6.22-66.62-24.6-6.5-31.31,13.16-54.8,45.24-53.24,4.94.24,21.51,3.41,21.51,9.48v15.5h.01Z"/>
          <path class="cls-2" d="M663.92,551.93c.55,3.15-1.04,4.12-4,4v14h11v-14c-2.96.12-4.55-.85-4-4h21c.56,3.33-1.04,3.73-3.85,4.13l-.16,33.87h4.02v3.99h-21v-4h4v-16h-11v16h4.01v4h-21v-4h4.01l-.16-33.87c-2.81-.41-4.41-.8-3.85-4.13h21-.02Z"/>
          <path class="cls-2" d="M72.49,387.95c4.13.83,8.76,6.03,8.57,10.48-.29,6.77-6.22,6.97-10.07,10.51,8.74.01,10.72,9.71,9.99,17.01h5.01l-.13,3.88c-4.72,1.27-11.14,2.25-15.39-.87-5.97-4.38.58-19.35-10.48-19.01v16h5v4h-22v-4h4.01l-.16-33.87c-2.81-.41-4.41-.8-3.85-4.13,8.58,1.19,21.5-1.61,29.5,0h0ZM59.99,406.95c12.06.83,12.58-16.93,0-15v15Z"/>
          <path class="cls-2" d="M214.47,551.93c4.13.83,8.76,6.03,8.57,10.48-.29,6.77-6.22,6.97-10.07,10.51,8.74.01,10.72,9.71,9.99,17.01h5.01l-.13,3.88c-4.72,1.27-11.14,2.25-15.39-.87-5.97-4.38.58-19.35-10.48-19.01v16h5v4h-22v-4h4.01l-.16-33.87c-2.81-.41-4.41-.8-3.85-4.13,8.58,1.19,21.5-1.61,29.5,0h0ZM201.97,570.93c12.06.83,12.58-16.93,0-15v15Z"/>
          <path class="cls-2" d="M112.49,551.93c4.13.83,8.76,6.03,8.57,10.48-.29,6.77-6.22,6.97-10.07,10.51,8.74.01,10.72,9.71,9.99,17.01h5.01l-.13,3.88c-4.72,1.27-11.14,2.25-15.39-.87-5.97-4.38.58-19.35-10.48-19.01v16h5v4h-22v-4h4.01l-.16-33.87c-2.81-.41-4.41-.8-3.85-4.13,8.58,1.19,21.5-1.61,29.5,0ZM99.99,570.93c12.06.83,12.58-16.93,0-15v15Z"/>
          <path class="cls-2" d="M29.5,387.95c4.84.8,8.5,4.39,8.58,9.49.11,6.44-3.24,6.07-7.66,8.42-.99.53-1.92-.55-1.43,2.08,10.75-.5,17.02,11.89,6.95,18.45-1.64,1.07-8.89,3.55-10.45,3.55H1v-4h4.01l-.16-33.87c-2.81-.41-4.41-.8-3.85-4.13,8.65,1.01,20.25-1.36,28.5,0h0ZM18,405.95c10.88,1.03,11.18-15.58,0-14v14ZM18,425.95c13.47,1.03,13.94-17.42,0-17v17Z"/>
          <path class="cls-2" d="M132.98,429.95v-4h4.01l-.16-33.87c-2.81-.41-4.41-.8-3.85-4.13h25.5c.54,0,4.89,1.7,5.84,2.16,14.32,6.89,13.98,30.02-.43,37.24-.98.49-6.88,2.59-7.4,2.59h-23.51ZM149.98,425.95c16.26.58,16.61-35.52,0-34v34Z"/>
          <path class="cls-2" d="M710.67,550.19c8.42-.36,17.04,4.36,20.03,12.44,6.54,17.68-3.99,35.45-24.05,32.05-22.03-3.74-21.64-43.4,4.02-44.49h0ZM710.65,554.08c-9.16,1.75-8.73,33.14-1.73,36.32,5.75,2.61,8.88-2.08,9.74-7.22.98-5.82,2.17-31.06-8.02-29.11h.01Z"/>
          <path class="cls-2" d="M57.75,550.19c8.42-.36,17.04,4.36,20.03,12.44,6.54,17.68-3.99,35.45-24.05,32.05-22.03-3.74-21.64-43.4,4.02-44.49ZM57.74,554.08c-9.16,1.75-8.73,33.14-1.73,36.32,5.75,2.61,8.88-2.08,9.74-7.22.98-5.82,2.17-31.06-8.02-29.11h.01Z"/>
          <path class="cls-2" d="M312.72,550.19c8.42-.36,17.04,4.36,20.03,12.44,6.54,17.68-3.99,35.45-24.05,32.05-22.03-3.74-21.64-43.4,4.02-44.49ZM312.7,554.08c-9.16,1.75-8.73,33.14-1.73,36.32,5.75,2.61,8.88-2.08,9.74-7.22.98-5.82,2.17-31.06-8.02-29.11h.01Z"/>
          <path class="cls-2" d="M353.96,551.93l17,23v-19l-7.02-.48-.98-3.52h17v4h-5v38l-6.99-.51-21-28.49v25h7v4h-17v-4h5v-32.5c0-1.23-6.74-1.65-5-5.5h17-.01Z"/>
          <path class="cls-2" d="M849.89,551.93l1,11-5.87-.13-2.07-7.43-9.07-.43v15l6.07-.43.99-4.52,3.94-.05v14l-3.94-.05-.99-4.52-6.07-.43v16l10.9-.11,1.15-6.84,5.96-.06v11h-35v-4h4.01l-.16-33.87c-2.81-.41-4.41-.8-3.85-4.13h33,0Z"/>
          <path class="cls-2" d="M623.92,551.93l1,11-5.87-.13-2.07-7.43-9.07-.43v15l6.07-.43.99-4.52,3.94-.05v14l-3.94-.05-.99-4.52-6.07-.43v16l10.9-.11,1.15-6.84,5.96-.06v11h-35v-4h4.01l-.16-33.87c-2.81-.41-4.41-.8-3.85-4.13h33,0Z"/>
          <path class="cls-2" d="M756.91,551.93l-.59,3.09-4.47,1.53c1.3,8.09-4.41,32.43,8.56,32.43s7.14-24.34,8.56-32.43l-4.47-1.53-.59-3.09h15l-.59,3.09-4.47,1.53c-.51,14.68,4.61,37.44-16.4,38.42-23.93,1.12-17.76-22.11-18.47-38.42-.34-1.17-5.45-.39-4.06-4.61h22-.01Z"/>
          <path class="cls-2" d="M467.8,553.07l.15,9.86h-7l-1-7.26c-5.94-5.29-14.13,3-7.95,8.71,6.65,6.14,20.22,4.88,17.88,19.98-1.61,10.36-14.99,11.56-23.35,10.48-9.46-1.23-9.17-4.08-8.59-12.92l6.86.14,2.77,8.72c6.65,2.13,15.71-2.83,9.42-9.42-5.73-6-18.6-5.35-18.14-18.95s19.54-13.81,28.95-9.35h0Z"/>
          <path class="cls-2" d="M810.76,553.07l.15,9.86h-7l-1-7.26c-5.94-5.29-14.13,3-7.95,8.71,6.65,6.14,20.22,4.88,17.88,19.98-1.61,10.36-14.99,11.56-23.35,10.48-9.46-1.23-9.17-4.08-8.59-12.92l6.86.14,2.77,8.72c6.65,2.13,15.71-2.83,9.42-9.42-5.73-6-18.6-5.35-18.14-18.95s19.54-13.81,28.95-9.35h0Z"/>
          <path class="cls-2" d="M288.96,551.93l-.78,4.72-18.21,33.27h12.99l1.12-7.88,4.9-.11v12h-34l.56-3.94,18.46-33.55c.22-2.06-.11-1.31-1.49-1.51-1.31-.18-9.06-.19-9.42.11l-1.1,8.89h-6.01l1.01-12h32-.03,0Z"/>
          <path class="cls-2" d="M35,551.93v11h-6l-1.14-7.86-9.86-.14v15h7v-5h4v14l-3.94-.05-.99-4.52-6.07-.43v16h6v4H1v-4h4.01l-.16-33.87c-2.81-.41-4.41-.8-3.85-4.13h34Z"/>
          <path class="cls-2" d="M511.94,551.93v12l-5.86-.14-2.06-8.43c-1.48-1.07-6.08-.4-6.08,1.07v33.5h6v4h-24v-4h6v-33.5c0-.67-1.67-1.4-2.52-1.54-8.27-1.38-.46,12.32-11.49,9.04l1-12h39.01,0Z"/>
          <path class="cls-2" d="M587.93,551.93v12l-5.86-.14-2.06-8.43c-1.48-1.07-6.08-.4-6.08,1.07v33.5h6v4h-24v-4h6v-33.5c0-.67-1.67-1.4-2.52-1.54-8.27-1.38-.46,12.32-11.49,9.04l1-12h39.01Z"/>
          <path class="cls-2" d="M160.98,593.93v-4h4.01c.53-10.41-6.03-8.07-13.87-7.86l-2.15,7.86h4.01v4h-13.01v-3.99l5.12-.6,12.37-36.42,8.4-.86,12.22,37.78,3.9.1v3.99h-21,0ZM161.98,577.92l-4.98-14.98-4.01,14.99h8.99,0Z"/>
          <path class="cls-2" d="M400.95,593.93v-4h4.01c.53-10.41-6.03-8.07-13.87-7.86l-2.15,7.86h4.01v4h-13.01v-3.99l5.12-.6,12.37-36.42,8.4-.86,12.22,37.78,3.9.1v3.99h-21ZM401.95,577.92l-4.98-14.98-4.01,14.99h8.99Z"/>
          <path class="cls-2" d="M529.93,593.93v-4h4.01c.53-10.41-6.03-8.07-13.87-7.86l-2.15,7.86h4.01v4h-13.01v-3.99l5.12-.6,12.37-36.42,8.4-.86,12.22,37.78,3.9.1v3.99h-21ZM530.93,577.92l-4.98-14.98-4.01,14.99h8.99Z"/>
          <path class="cls-2" d="M108.99,429.95v-4h4.01c.53-10.41-6.03-8.07-13.87-7.86l-2.15,7.86h4.01v4h-13.01v-3.99l5.12-.6,12.37-36.42,8.4-.86,12.22,37.78,3.9.1v3.99h-21ZM109.98,413.94l-4.98-14.98-4.01,14.99h8.99Z"/>
          <path class="cls-2" d="M252.97,551.93l-.06,2.92-4.94,1.08v34h5v4h-22v-4h4.01l-.16-33.87c-2.81-.41-4.41-.8-3.85-4.13h22Z"/>
        </g>
      </g>
    </g>
  </g>
</svg>