<?xml version="1.0" encoding="UTF-8"?>
<svg id="Layer_2" data-name="Layer 2" xmlns="http://www.w3.org/2000/svg" viewBox="0 0 496.82 195.23">
  <defs>
    <style>
      .cls-1 {
        fill: #2c328e;
      }

      .cls-2 {
        fill: #f2cf31;
      }

      .cls-3 {
        fill: #dc2927;
      }

      .cls-4 {
        fill: none;
        stroke: #f2cf30;
        stroke-width: 10px;
      }
    </style>
  </defs>
  <g id="Layer_1-2" data-name="Layer 1">
    <g>
      <path class="cls-1" d="M6.34,53.14V.86h23.36c16.46,0,28.69,9.41,28.69,26.1s-12.23,26.18-28.61,26.18H6.34ZM22.17,39.35h7.52c7.92,0,12.62-5.8,12.62-12.38,0-7.05-4.08-12.31-12.54-12.31h-7.6v24.69Z"/>
      <path class="cls-1" d="M92.8,53.14l-7.21-16.77h-5.72v16.77h-15.83V.86h27.9c12.23,0,18.81,8.15,18.81,17.95,0,9.01-5.25,13.79-9.41,15.83l9.48,18.5h-18.03ZM89.51,14.03h-9.64v9.17h9.64c2.67,0,5.17-1.72,5.17-4.62s-2.51-4.55-5.17-4.55Z"/>
      <path class="cls-1" d="M124,37.31c4.55,0,8.39,3.84,8.39,8.39s-3.84,8.39-8.39,8.39-8.39-3.84-8.39-8.39,3.84-8.39,8.39-8.39Z"/>
      <path class="cls-1" d="M159.35,53.14V.86h31.75c10.82,0,15.52,7.21,15.52,13.33,0,6.51-3.84,10.9-8.94,11.99,5.64.86,9.96,6.04,9.96,12.78,0,7.29-4.94,14.19-15.44,14.19h-32.84ZM175.19,20.3h12.23c1.65,0,3.14-1.49,3.14-3.37s-1.49-3.21-3.14-3.21h-12.23v6.58ZM175.19,40.29h12.7c2.27,0,3.68-1.57,3.68-3.53s-1.41-3.61-3.68-3.61h-12.7v7.13Z"/>
      <path class="cls-1" d="M242.76,53.14l-7.21-16.77h-5.72v16.77h-15.83V.86h27.9c12.23,0,18.81,8.15,18.81,17.95,0,9.01-5.25,13.79-9.41,15.83l9.48,18.5h-18.03ZM239.47,14.03h-9.64v9.17h9.64c2.67,0,5.17-1.72,5.17-4.62s-2.51-4.55-5.17-4.55Z"/>
      <path class="cls-1" d="M267.14,53.14V.86h15.83v52.28h-15.83Z"/>
      <path class="cls-1" d="M291.44,53.14V.86h23.36c16.46,0,28.69,9.41,28.69,26.1s-12.23,26.18-28.61,26.18h-23.44ZM307.27,39.35h7.53c7.92,0,12.62-5.8,12.62-12.38,0-7.05-4.08-12.31-12.54-12.31h-7.6v24.69Z"/>
      <path class="cls-1" d="M375.08,0c12.15,0,19.36,6.11,22.97,12.85l-13.33,6.82c-1.72-3.21-5.17-5.72-9.64-5.72-7.6,0-12.7,5.8-12.7,13.09s5.09,13.09,12.7,13.09c3.37,0,6.51-.86,8.54-2.35v-2.27h-10.11v-13.01h25.47v21.01c-5.8,6.43-13.64,10.58-23.91,10.58-15.83,0-28.77-10.35-28.77-27.04S359.25,0,375.08,0Z"/>
      <path class="cls-1" d="M406.05,53.14V.86h39.66v13.17h-23.83v6.11h23.28v13.17h-23.28v6.66h23.83v13.17h-39.66Z"/>
      <path class="cls-1" d="M463.98,53.14V14.66h-14.03V.86h43.82v13.8h-13.95v38.49h-15.83Z"/>
    </g>
    <g>
      <path class="cls-3" d="M5.05,120.21v-49.7h37.7v12.52h-22.65v5.81h22.13v12.52h-22.13v18.85H5.05Z"/>
      <path class="cls-3" d="M49.16,120.21v-49.7h15.05v49.7h-15.05Z"/>
      <path class="cls-3" d="M82.92,120.21v-36.58h-13.34v-13.11h41.65v13.11h-13.26v36.58h-15.05Z"/>
      <path class="cls-3" d="M115.26,120.21v-11.92l18.93-24.66h-18.93v-13.11h38.82v11.85l-19,24.74h19.52v13.11h-39.34Z"/>
      <path class="cls-3" d="M185.3,69.69c11.55,0,18.4,5.81,21.83,12.22l-12.67,6.48c-1.64-3.05-4.92-5.44-9.16-5.44-7.23,0-12.07,5.51-12.07,12.44s4.84,12.44,12.07,12.44c3.2,0,6.18-.82,8.12-2.24v-2.16h-9.61v-12.37h24.22v19.97c-5.51,6.11-12.96,10.06-22.73,10.06-15.05,0-27.34-9.84-27.34-25.71s12.29-25.71,27.34-25.71Z"/>
      <path class="cls-3" d="M214.73,120.21v-49.7h15.05v49.7h-15.05Z"/>
      <path class="cls-3" d="M237.83,120.21v-49.7h30.18c10.28,0,14.75,6.85,14.75,12.67,0,6.18-3.65,10.36-8.49,11.4,5.36.82,9.46,5.74,9.46,12.14,0,6.93-4.69,13.49-14.68,13.49h-31.22ZM252.89,88.99h11.62c1.56,0,2.98-1.42,2.98-3.2s-1.42-3.05-2.98-3.05h-11.62v6.26ZM252.89,107.99h12.07c2.16,0,3.5-1.49,3.5-3.35s-1.34-3.43-3.5-3.43h-12.07v6.78Z"/>
      <path class="cls-3" d="M289.77,120.21v-49.7h30.18c10.28,0,14.75,6.85,14.75,12.67,0,6.18-3.65,10.36-8.49,11.4,5.37.82,9.46,5.74,9.46,12.14,0,6.93-4.69,13.49-14.68,13.49h-31.22ZM304.82,88.99h11.62c1.57,0,2.98-1.42,2.98-3.2s-1.42-3.05-2.98-3.05h-11.62v6.26ZM304.82,107.99h12.07c2.16,0,3.5-1.49,3.5-3.35s-1.34-3.43-3.5-3.43h-12.07v6.78Z"/>
      <path class="cls-3" d="M366.22,69.69c15.35,0,27.2,10.43,27.2,25.71s-11.85,25.71-27.2,25.71-27.2-10.43-27.2-25.71,11.85-25.71,27.2-25.71ZM366.22,82.96c-7.23,0-11.92,5.51-11.92,12.44s4.69,12.44,11.92,12.44,11.92-5.51,11.92-12.44-4.69-12.44-11.92-12.44Z"/>
      <path class="cls-3" d="M432.17,120.21l-18.33-26.67v26.67h-15.05v-49.7h15.5l17.29,25.04v-25.04h15.05v49.7h-14.46Z"/>
      <path class="cls-3" d="M458.7,102.03c3.73,3.58,9.31,6.41,16.02,6.41,2.83,0,5.51-.97,5.51-2.91s-2.09-2.91-7-3.8c-8.2-1.49-20.71-3.43-20.71-15.87,0-8.42,7-16.09,20.64-16.09,8.12,0,15.42,2.31,21.09,6.93l-8.05,10.65c-4.32-3.28-9.91-4.92-13.86-4.92-3.72,0-4.54,1.34-4.54,2.61,0,1.94,2.01,2.61,7.3,3.5,8.2,1.42,20.34,3.8,20.34,15.27s-8.12,17.29-21.46,17.29c-10.58,0-17.81-3.13-23.1-7.9l7.82-11.18Z"/>
    </g>
    <g>
      <path class="cls-1" d="M22.41,194.72l-.33-3.59h-10.64l-1.88,3.59H0l16.4-27.84h10.6l4.13,27.84h-8.72ZM20.53,173.9l-5.38,10.22h6.34l-.96-10.22Z"/>
      <path class="cls-1" d="M48.28,194.72l-1.88-8.93h-3.38l-1.96,8.93h-8.43l6.13-27.84h13.52c5.05,0,9.35,3.3,9.35,8.43s-3.21,8.72-6.84,10.02l2.75,9.39h-9.26ZM49.49,178.78c2.04,0,3.42-.92,3.42-2.63,0-1.38-.96-2.25-2.46-2.25h-4.8l-1.08,4.88h4.92Z"/>
      <path class="cls-1" d="M60.92,194.72l6.13-27.84h8.43l-6.13,27.84h-8.43Z"/>
      <path class="cls-1" d="M73.11,194.72l1.46-6.68,13.23-13.81h-10.18l1.63-7.34h21.74l-1.46,6.64-13.27,13.86h10.52l-1.63,7.34h-22.03Z"/>
      <path class="cls-1" d="M116.42,166.43c8.22,0,14.48,5.17,14.48,12.69,0,8.89-7.01,16.11-16.69,16.11-8.26,0-14.52-5.22-14.52-12.77,0-8.89,7.05-16.03,16.73-16.03ZM115.92,173.86c-4.42,0-7.51,3.76-7.51,8.01,0,3.42,2.5,5.93,6.26,5.93,4.42,0,7.51-3.76,7.51-8.01,0-3.42-2.5-5.93-6.26-5.93Z"/>
      <path class="cls-1" d="M149.18,194.72l-6.84-15.69-3.42,15.69h-8.43l6.13-27.84h8.68l6.43,14.77,3.25-14.77h8.43l-6.13,27.84h-8.1Z"/>
      <path class="cls-1" d="M181.19,194.72l-.33-3.59h-10.64l-1.88,3.59h-9.56l16.4-27.84h10.6l4.13,27.84h-8.72ZM179.31,173.9l-5.38,10.22h6.34l-.96-10.22Z"/>
      <path class="cls-1" d="M206.18,183.96c2.04,2.5,5.97,4.17,9.6,4.17,1.71,0,2.34-.67,2.34-1.38,0-1-1.34-1.63-3.51-2.34-3.92-1.25-9.6-3.26-9.6-9.1,0-3.71,3.8-8.85,11.73-8.85,4.55,0,9.1,1.59,12.14,4.63l-4.92,5.72c-2.09-2.25-5.72-3.38-8.14-3.38-1.54,0-2.17.67-2.17,1.42,0,.92,1.46,1.54,3.55,2.21,3.96,1.25,9.68,3.38,9.68,8.68s-4.47,9.47-11.64,9.47c-5.93,0-11.18-2.13-13.94-5.43l4.88-5.84Z"/>
      <path class="cls-1" d="M232.35,194.72l4.51-20.49h-7.47l1.63-7.34h23.33l-1.63,7.34h-7.43l-4.51,20.49h-8.43Z"/>
      <path class="cls-1" d="M268.57,194.72l-.33-3.59h-10.64l-1.88,3.59h-9.56l16.4-27.84h10.6l4.13,27.84h-8.72ZM266.69,173.9l-5.38,10.22h6.34l-.96-10.22Z"/>
      <path class="cls-1" d="M281.88,194.72l4.51-20.49h-7.47l1.63-7.34h23.33l-1.63,7.34h-7.43l-4.51,20.49h-8.43Z"/>
      <path class="cls-1" d="M300.74,194.72l6.13-27.84h21.12l-1.54,7.01h-12.69l-.71,3.25h12.39l-1.54,7.01h-12.4l-.79,3.55h12.69l-1.54,7.01h-21.12Z"/>
      <path class="cls-1" d="M340.38,183.96c2.04,2.5,5.97,4.17,9.6,4.17,1.71,0,2.34-.67,2.34-1.38,0-1-1.34-1.63-3.51-2.34-3.92-1.25-9.6-3.26-9.6-9.1,0-3.71,3.8-8.85,11.73-8.85,4.55,0,9.1,1.59,12.14,4.63l-4.92,5.72c-2.09-2.25-5.72-3.38-8.14-3.38-1.54,0-2.17.67-2.17,1.42,0,.92,1.46,1.54,3.55,2.21,3.96,1.25,9.68,3.38,9.68,8.68s-4.47,9.47-11.64,9.47c-5.93,0-11.18-2.13-13.94-5.43l4.88-5.84Z"/>
      <path class="cls-1" d="M361.83,194.72l6.13-27.84h21.12l-1.54,7.01h-12.69l-.71,3.25h12.39l-1.54,7.01h-12.4l-.79,3.55h12.69l-1.54,7.01h-21.12Z"/>
      <path class="cls-1" d="M405.39,194.72l-6.84-15.69-3.42,15.69h-8.43l6.13-27.84h8.68l6.43,14.77,3.25-14.77h8.43l-6.13,27.84h-8.1Z"/>
      <path class="cls-1" d="M437.4,194.72l-.33-3.59h-10.64l-1.88,3.59h-9.56l16.4-27.84h10.6l4.13,27.84h-8.72ZM435.52,173.9l-5.38,10.22h6.34l-.96-10.22Z"/>
      <path class="cls-1" d="M450.71,194.72l4.51-20.49h-7.47l1.63-7.34h23.33l-1.63,7.34h-7.43l-4.51,20.49h-8.43Z"/>
      <path class="cls-1" d="M469.57,194.72l6.13-27.84h21.12l-1.54,7.01h-12.69l-.71,3.25h12.39l-1.54,7.01h-12.4l-.79,3.55h12.69l-1.54,7.01h-21.12Z"/>
    </g>
    <line class="cls-4" x1="3.63" y1="144.72" x2="200.35" y2="144.72"/>
    <line class="cls-4" x1="296.93" y1="144.72" x2="493.65" y2="144.72"/>
    <polygon class="cls-2" points="243.95 137.85 229.06 137.85 229.06 138.1 241.05 146.81 236.36 161.25 248.64 152.33 260.92 161.25 256.23 146.81 268.22 138.1 268.22 137.85 253.33 137.85 248.64 123.42 243.95 137.85"/>
  </g>
</svg>